/* XPM */
static const char *doc_new_xpm[] = {
/* columns rows colors chars-per-pixel */
"16 16 25 1",
"> c #1E1E1E",
"@ c #2D2D2D",
"* c #262626",
"2 c #101010",
": c #1F1F1F",
"+ c #2E2E2E",
"4 c #090909",
"< c #181818",
"6 c #020202",
"& c #111111",
"$ c #191919",
"- c #0B0B0B",
"  c None",
"# c #1A1A1A",
". c #292929",
"% c #131313",
"O c #222222",
"o c #313131",
"= c #0C0C0C",
", c #1B1B1B",
"X c #2A2A2A",
"5 c #050505",
"1 c #141414",
"; c #232323",
"3 c #0D0D0D",
/* pixels */
"                ",
"         . X .  ",
"  ooooo   OOO   ",
"  ++++@  #$ $#  ",
"  XXXX.   %&%   ",
"  ****** = - =  ",
"  ;;;;;O        ",
"  ::::::>>      ",
"  ,,,,,,,,,#,   ",
"  <<<<<<<<<<<   ",
"  11111111111   ",
"  22222222222   ",
"  33333333333   ",
"  44444444444   ",
"  55555555555   ",
"  66666666666   "
};
