/* XPM */
static const char *folder_open_xpm[] = {
/* columns rows colors chars-per-pixel */
"16 16 24 1",
", c #0F0F0F",
"o c #2D2D2D",
"$ c #262626",
"X c #2E2E2E",
"3 c #090909",
"# c #272727",
"5 c #020202",
"& c #202020",
"- c #191919",
"1 c #0B0B0B",
"  c None",
"= c #1A1A1A",
"O c #292929",
"> c #131313",
". c #313131",
"< c #0C0C0C",
"@ c #2A2A2A",
"4 c #050505",
"+ c #2B2B2B",
": c #151515",
"% c #242424",
"* c #1D1D1D",
"2 c #070707",
"; c #161616",
/* pixels */
" .....          ",
" XXXXXo         ",
"O++++++++++++@  ",
"#############$  ",
"%               ",
"&               ",
"*  *************",
"   ============-",
"  ;;;;;;;;;;;;;:",
"  >>>>>>>>>>>>> ",
"  ,,,,,,,,,,,,, ",
"  <<<<<<<<<<<<1 ",
" 23333333333333 ",
" 4444444444444  ",
" 5555555555555  ",
"                "
};
