/* XPM */
static const char *save_xpm[] = {
/* columns rows colors chars-per-pixel */
"16 16 18 1",
"$ c #1E1E1E",
"o c #2D2D2D",
": c #080808",
"X c #2E2E2E",
"& c #181818",
", c #020202",
"+ c #282828",
"= c #121212",
"# c #212121",
"; c #0B0B0B",
". c None",
"  c #313131",
"% c #1B1B1B",
"> c #050505",
"O c #2B2B2B",
"* c #151515",
"- c #0E0E0E",
"@ c #252525",
/* pixels */
"               .",
"XXXXXXXXXXXXXXXo",
"OO.OOOOO..OO..OO",
"++.+++++..++..++",
"@@.@@@@@..@@..@@",
"##.#####..##..##",
"$$.$$$$$$$$$..$$",
"%%............%%",
"&&............&&",
"**............**",
"==............==",
"--............--",
";;............;;",
"::............::",
">>>>>>>>>>>>>>>>",
",,,,,,,,,,,,,,,,"
};
